<svg xmlns="http://www.w3.org/2000/svg" viewBox="0 0 64 64" role="img" aria-label="Celso Arthur">
  <defs>
    <linearGradient id="background" x1="10" y1="8" x2="54" y2="58" gradientUnits="userSpaceOnUse">
      <stop stop-color="#7dd3fc"/>
      <stop offset="1" stop-color="#0ea5e9"/>
    </linearGradient>
  </defs>

  <rect width="64" height="64" rx="18" fill="#020617"/>
  <circle cx="32" cy="32" r="23" fill="url(#background)"/>
  <path
    d="M41.5 22.8c-2.2-2.3-5-3.5-8.4-3.5-7 0-12 5.1-12 12.7 0 7.5 5 12.7 12 12.7 3.5 0 6.4-1.2 8.7-3.7l-4.1-4c-1.2 1.3-2.6 1.9-4.4 1.9-3.8 0-6.2-2.9-6.2-6.9s2.4-6.9 6.2-6.9c1.7 0 3.1.6 4.2 1.8l4-4.1Z"
    fill="#082f49"
  />
</svg>
